<?xml version="1.0" encoding="UTF-8"?>
<svg version="1.2" viewBox="0 0 128 128" xmlns="http://www.w3.org/2000/svg">
<style>.s0 { fill: #ff9654 } 
		.s1 { fill: #d15fa3 } 
		.s2 { fill: #ffffff }</style>
<path class="s0" d="m21.9 65.3c-3.2-0.8-4.5-3.8-4.5-10.8 0-7.9 1-9.7 7.5-12.4 4.2-1.8 7.5-3.8 7.5-4.8 0-0.7-5.2-5.2-11.2-10-10-7.4-11.3-9.4-11.3-18.2 0-7.2 0.8-9.2 3.3-8 1.5 1.3 14.9 10.3 29.7 20.3 19.2 13.2 27.7 17.7 31.2 16.4 4-1.5 4-1.2 1 2.5-5.5 6.8 0.2 4.8 10.4-3.5 10.3-8.5 12.3-8.2 26.2 2.5 5.8 4.3 5.8 4.3 1 10.2-4.5 5.5-5.7 5.8-11.4 3-9.8-4.4-11.5-3.7-11.5 4.3 0 5.2-1.5 7.5-5.5 8.7-9 2.3-11.5 1.8-12.7-2.7-1-4.3-1.3-4.3-1.5 0-0.3 2.7-2.3 4.2-6.5 4.2-5 0-6.3-1.2-6.3-6 0-4-2.7-8-7.4-11.5-10.5-7.4-14-5.2-13.3 7.3 0.5 10.7-1.5 12-14.7 8.5z"/>
<path class="s1" d="m33.1 120.7c-5.7-3-12.9-6.3-15.7-7-4.5-1.3-5-2.3-2.7-6.5 1.5-2.8 2.7-9.5 2.7-15 0-10.2 0-10.2 9.5-10.2h9.5l-1 9.7c-1 9.5-0.5 10.3 8.2 13.7 5.3 2.3 10.3 4 11.5 4 1 0 2.2-6.4 2.7-14.2l0.8-14.5 15.7-0.7 15.5-0.8v11.5c0 10 1 11.8 8 16.2 7.2 4.3 8.7 4.5 13.7 1.3 11.2-7.5 7.7 1.2-4 10l-12.5 9-12.5-6.5-12.7-6.3-10 6.3c-11.4 7.2-12.9 7.2-26.7 0z"/>
<path class="s2" d="m17.4 73.3c0-16.3 0-16.3 7-16.3 9.5 0 13 4.3 13 15.3 0 14.2-2 17.2-11.5 17.2h-8.5z"/>
<path class="s2" d="m57.8 73.8c0.8-13.5 1.5-15.5 5.8-15.5 3 0 5.2 2.2 6.5 6.2l1.5 6.3 1-6.3c0.7-5 2.7-6.5 9.2-7l8-0.7v31.4l-16.2 0.5-16.5 0.3z"/>
</svg>
